<svg width="16" height="16" viewBox="0 0 16 16" fill="none" xmlns="http://www.w3.org/2000/svg">
<path d="M4.88889 11.1111L4.24577 10.7252C4.07267 11.0137 4.11287 11.3822 4.34411 11.6266C4.57534 11.871 4.94102 11.9315 5.23864 11.7746L4.88889 11.1111ZM7.1222 7.38898L7.76532 7.77485L7.76548 7.77458L7.1222 7.38898ZM7.38898 7.1222L7.77458 7.76548L7.77485 7.76532L7.38898 7.1222ZM11.1111 4.8889L11.7657 5.25498C11.9316 4.95833 11.8773 4.58719 11.6333 4.35055C11.3893 4.1139 11.0167 4.07091 10.7252 4.24579L11.1111 4.8889ZM8.89032 8.85991L8.23573 8.49383L8.23566 8.49397L8.89032 8.85991ZM8.57423 9.1683L8.22462 8.50477L8.22448 8.50485L8.57423 9.1683ZM14.25 8C14.25 11.4518 11.4518 14.25 8 14.25V15.75C12.2802 15.75 15.75 12.2802 15.75 8H14.25ZM8 14.25C4.54822 14.25 1.75 11.4518 1.75 8H0.25C0.25 12.2802 3.71979 15.75 8 15.75V14.25ZM1.75 8C1.75 4.54822 4.54822 1.75 8 1.75V0.25C3.71979 0.25 0.25 3.71979 0.25 8H1.75ZM8 1.75C11.4518 1.75 14.25 4.54822 14.25 8H15.75C15.75 3.71979 12.2802 0.25 8 0.25V1.75ZM5.53201 11.497L7.76532 7.77485L6.47908 7.0031L4.24577 10.7252L5.53201 11.497ZM7.76548 7.77458C7.76772 7.77084 7.77084 7.76772 7.77458 7.76548L7.00338 6.47892C6.78809 6.60797 6.60797 6.78809 6.47892 7.00338L7.76548 7.77458ZM7.77485 7.76532L11.497 5.53202L10.7252 4.24579L7.0031 6.47908L7.77485 7.76532ZM10.4565 4.52283L8.23573 8.49383L9.54491 9.22599L11.7657 5.25498L10.4565 4.52283ZM8.23566 8.49397C8.23304 8.49866 8.22922 8.50235 8.22462 8.50477L8.92385 9.83183C9.18525 9.69409 9.40092 9.48359 9.54499 9.22586L8.23566 8.49397ZM8.22448 8.50485L4.53913 10.4477L5.23864 11.7746L8.92399 9.83175L8.22448 8.50485Z" fill="#FECD2C"/>
</svg>
