<svg width="25" height="24" viewBox="0 0 25 24" fill="none" xmlns="http://www.w3.org/2000/svg">
<path d="M23.8303 11.4165C23.9071 11.4931 23.9679 11.5841 24.0095 11.6842C24.051 11.7843 24.0724 11.8916 24.0724 12C24.0724 12.1084 24.051 12.2157 24.0095 12.3158C23.9679 12.4159 23.9071 12.5069 23.8303 12.5834L19.7338 16.68C19.6186 16.7955 19.4818 16.8871 19.3312 16.9497C19.1805 17.0123 19.0191 17.0446 18.8559 17.0448C18.6928 17.045 18.5313 17.0131 18.3805 16.9508C18.2297 16.8886 18.0927 16.7973 17.9772 16.6821C17.8618 16.5669 17.7701 16.43 17.7075 16.2794C17.6449 16.1288 17.6126 15.9673 17.6124 15.8042C17.6122 15.6411 17.6442 15.4796 17.7064 15.3288C17.7686 15.178 17.86 15.041 17.9752 14.9255L19.6593 13.2414H8.27586C7.94663 13.2414 7.63088 13.1106 7.39808 12.8778C7.16527 12.645 7.03448 12.3292 7.03448 12C7.03448 11.6708 7.16527 11.355 7.39808 11.1222C7.63088 10.8894 7.94663 10.7586 8.27586 10.7586H19.6593L17.9752 9.07448C17.7425 8.84127 17.612 8.52519 17.6124 8.19578C17.6126 8.03267 17.6449 7.87119 17.7075 7.72057C17.7701 7.56995 17.8618 7.43313 17.9772 7.31793C18.0927 7.20273 18.2297 7.1114 18.3805 7.04916C18.5313 6.98692 18.6928 6.95498 18.8559 6.95517C19.1854 6.95556 19.5011 7.08679 19.7338 7.32L23.8303 11.4165Z" fill="#F3CD2C"/>
<path d="M17.7931 0C18.1223 0 18.4381 0.130788 18.6709 0.363592C18.9037 0.596395 19.0345 0.912145 19.0345 1.24138C19.0345 1.57061 18.9037 1.88636 18.6709 2.11917C18.4381 2.35197 18.1223 2.48276 17.7931 2.48276H2.89655C2.78681 2.48276 2.68156 2.52635 2.60396 2.60396C2.52635 2.68156 2.48276 2.78681 2.48276 2.89655V21.1034C2.48276 21.2132 2.52635 21.3184 2.60396 21.396C2.68156 21.4736 2.78681 21.5172 2.89655 21.5172H17.7931C18.1223 21.5172 18.4381 21.648 18.6709 21.8808C18.9037 22.1136 19.0345 22.4294 19.0345 22.7586C19.0345 23.0879 18.9037 23.4036 18.6709 23.6364C18.4381 23.8692 18.1223 24 17.7931 24H2.48276C1.82429 24 1.19279 23.7384 0.727183 23.2728C0.261576 22.8072 0 22.1757 0 21.5172V2.48276C0 1.82429 0.261576 1.19279 0.727183 0.727183C1.19279 0.261576 1.82429 0 2.48276 0H17.7931Z" fill="#F3CD2C"/>
</svg>
