<svg xmlns="http://www.w3.org/2000/svg" xml:space="preserve" width="20" height="20"><path d="M15.3 8.973a1.819 1.819 0 0 0-1.818 1.818c0 .24.196.436.436.436s.435-.197.435-.436c0-.522.428-.95.95-.95.24 0 .436-.196.436-.436a.44.44 0 0 0-.44-.432z" style="fill:#fecd2c;stroke-width:.0392543"/><path d="M18.263 7.721a4.9 4.9 0 0 0-.338-.294L16.316 6.06a4.223 4.223 0 0 0-2.159-.774l.086.087-.977-.982h-.008a1.532 1.532 0 0 0-2.489.66 1.4 1.4 0 0 0-.67-.216c-.04-.004-.083-.004-.123-.004-.278 0-.537.082-.757.22a1.534 1.534 0 0 0-2.489-.656h-.008l-.977.982.086-.087c-.8.055-1.542.338-2.159.774L2.062 7.43a4.252 4.252 0 0 0-1.64 3.364 4.275 4.275 0 0 0 4.27 4.27 4.275 4.275 0 0 0 4.236-3.744c.314.18.68.282 1.064.282.389 0 .75-.102 1.064-.282a4.278 4.278 0 0 0 4.236 3.74 4.275 4.275 0 0 0 4.27-4.27 4.233 4.233 0 0 0-1.299-3.07zm-13.57 5.986a2.912 2.912 0 0 1-2.913-2.912 2.912 2.912 0 0 1 2.913-2.913 2.912 2.912 0 1 1 0 5.825zm5.303-3.313a.947.947 0 1 1 .001-1.893.947.947 0 0 1 0 1.893zm5.303 3.313a2.912 2.912 0 0 1-2.912-2.912 2.912 2.912 0 0 1 2.912-2.913 2.912 2.912 0 1 1 0 5.825z" style="fill:#fecd2c;stroke-width:.0392543"/><path d="M4.693 8.973a1.819 1.819 0 0 0-1.818 1.818c0 .24.197.436.436.436.24 0 .436-.197.436-.436 0-.522.428-.95.95-.95.24 0 .436-.196.436-.436a.44.44 0 0 0-.44-.432z" style="fill:#fecd2c;stroke-width:.0392543"/></svg>