<svg width="202" height="170" viewBox="0 0 202 170" fill="none" xmlns="http://www.w3.org/2000/svg">
<path d="M200.6 85.3L201.4 49.3L132.9 133.5V170" fill="#0689FF"/>
<path d="M132.9 170V133.5L74.2001 75V111.1" fill="#0B6DB5"/>
<path d="M73.2001 0.099981C33.4001 -0.100019 1.00015 32.3 0.700148 72.6C0.500148 112.8 32.6001 145.6 72.4001 145.8C79.7001 145.8 86.7001 144.8 93.4001 142.8L70.1001 119.2C47.4001 117.5 29.5001 97.4 29.6001 72.9C29.7001 47.4 49.4001 26.8 73.5001 26.9C97.6001 27 117 47.8 116.9 73.3C116.9 82.4 114.3 90.9 110 98L129.6 117.8C139.1 105.5 144.9 90.1 144.9 73.3C145 33.1 113 0.299981 73.2001 0.099981Z" fill="white"/>
</svg>
