<svg width="1248" height="209" viewBox="0 0 1248 209" fill="none" xmlns="http://www.w3.org/2000/svg">
<path d="M246.1 133.3L257.2 153.5V153.7C249.1 160.8 239.2 164.4 227.2 164.4C208.3 164.4 194.9 159.3 187 149.1C179.7 140 176.1 125.4 176.1 105.4V46.4H208V105.4C208 109.6 208.1 113.6 208.3 117.5C208.5 121.4 209.4 124.8 210.9 127.7C212.4 130.6 214.7 133 217.7 134.8C220.8 136.6 225.2 137.5 230.9 137.5C233.5 137.5 236.1 137.1 238.6 136.3C241.1 135.5 243.4 134.5 245.6 133.3H246.1ZM294.8 46.4V163.2H263V46.4H294.8Z" fill="white"/>
<path d="M433.5 46.4V162.5H403V104.3C403 99.8 402.1 95.6 400.4 91.7C398.7 87.8 396.3 84.4 393.3 81.5C390.3 78.6 386.8 76.3 382.9 74.6C379 73 374.8 72.2 370.5 72.2C366 72.2 361.8 73.1 358 74.8C354.1 76.5 350.7 78.8 347.7 81.7C344.7 84.6 342.3 88 340.6 92C338.9 96 338 100.2 338 104.7C338 109.1 338.8 113.2 340.6 117.1C342.3 121 344.7 124.4 347.7 127.4C350.7 130.4 354.2 132.7 358 134.4C361.9 136.1 366 137 370.5 137C375.3 137 379.4 136.1 382.8 134.4H383V134.9L394.6 155.6L394.4 155.8C386.8 161.7 377.4 164.6 366.3 164.6C358.1 164.6 350.4 163 343.1 160C335.8 156.9 329.5 152.6 324.1 147.2C318.7 141.8 314.4 135.4 311.2 128.2C308 120.9 306.4 113.2 306.4 105C306.4 96.6 308 88.8 311.2 81.5C314.4 74.2 318.7 67.9 324.1 62.5C329.5 57.1 335.9 52.8 343.1 49.6C350.4 46.4 358.1 44.8 366.3 44.8C374.3 44.8 381.4 46.3 387.4 49.3C393.4 52.3 398.6 56.6 403 62.3V46.4H433.5Z" fill="white"/>
<path d="M449.7 46.4H481.3V162.5H449.7V46.4ZM557 59.9C560.9 64.7 563.7 70.7 565.4 78C567.1 85.3 568 94.3 568 104.9V162.5H536.4V104.8C536.4 100.5 536.3 96.3 536.1 92.3C535.9 88.3 535.1 84.9 533.7 81.8C532.3 78.8 530.1 76.4 527 74.7C523.9 73 519.5 72.1 513.8 72.1C508.4 72.1 503.4 73.3 498.7 75.6V75.8L498.5 75.6L487.1 55.5L487.3 55.3C495.3 48.1 505.4 44.5 517.5 44.5C535.9 44.6 549.1 49.7 557 59.9Z" fill="white"/>
<path d="M661.5 84.3V58.5H626V16.5H595.1V58.5H578.4V84.3H595.1V119.1C595.1 125.1 596.3 130.8 598.6 136.1C600.9 141.4 604.1 146 608 149.9C611.9 153.8 616.6 156.9 621.9 159.2C627.2 161.4 632.9 162.6 639 162.6H661.5V135.7H639C635.4 135.7 632.4 134.5 629.8 132C627.2 129.5 626 126.5 626 122.9V84.3H661.5Z" fill="white"/>
<path d="M673.1 162.5V46.4H704V162.5H673.1Z" fill="white"/>
<path d="M704 0H673.1V27.2H704V0Z" fill="#0689FF"/>
<path d="M812.6 162.5V46.4H843.5V162.5H812.6Z" fill="white"/>
<path d="M843.5 0H812.6V27.2H843.5V0Z" fill="#0689FF"/>
<path d="M984.2 46.4V209H952.9V148.3V104.8C952.9 100.3 952 96.1 950.3 92.1C948.6 88.1 946.3 84.7 943.3 81.7C940.4 78.8 936.9 76.4 933 74.7C929.1 73 924.8 72.1 920.1 72.1C915.6 72.1 911.4 73 907.3 74.7C903.3 76.4 899.8 78.8 896.7 81.7C893.7 84.7 891.3 88.1 889.6 92.1C887.9 96.1 887 100.3 887 104.8C887 109.5 887.8 113.8 889.6 117.9C891.3 122 893.7 125.5 896.7 128.5C899.7 131.5 903.2 133.9 907.3 135.6C911.3 137.3 915.6 138.2 920.1 138.2C924.1 138.2 928.3 137.3 932.6 135.6L932.8 135.4V135.6L944.9 156.6L944.7 156.8C936.8 162.8 927.2 165.8 915.9 165.8C907.5 165.8 899.7 164.2 892.3 161C884.9 157.8 878.5 153.5 872.9 148C867.3 142.5 863 136 859.8 128.6C856.6 121.2 855 113.2 855 104.7C855 96.3 856.6 88.5 859.8 81.2C863 73.9 867.3 67.5 872.9 62C878.5 56.5 884.9 52.2 892.3 49C899.7 45.8 907.5 44.2 915.9 44.2C923.9 44.2 931.1 45.7 937.4 48.6C943.7 51.5 948.8 55.9 952.8 61.7V46.4H984.2Z" fill="white"/>
<path d="M1066.9 133.3L1078 153.5V153.7C1069.9 160.8 1060 164.4 1048 164.4C1029.1 164.4 1015.7 159.3 1007.8 149.1C1000.5 140 996.9 125.4 996.9 105.4V46.4H1028.7V105.4C1028.7 109.6 1028.8 113.6 1029 117.5C1029.2 121.4 1030.1 124.8 1031.6 127.7C1033.1 130.6 1035.4 133 1038.4 134.8C1041.5 136.6 1045.9 137.5 1051.6 137.5C1054.2 137.5 1056.8 137.1 1059.3 136.3C1061.8 135.5 1064.1 134.5 1066.3 133.3H1066.9ZM1115.6 46.4V163.2H1083.8V46.4H1115.6Z" fill="white"/>
<path d="M1187.6 44.6C1195.8 44.6 1203.5 46.2 1210.8 49.4C1218.1 52.6 1224.4 56.9 1229.8 62.3C1235.2 67.7 1239.5 74.1 1242.7 81.3C1245.9 88.6 1247.5 96.4 1247.5 104.8C1247.5 109.3 1247 113.6 1246.1 117.8L1245.9 118.3H1186.9L1172 94.6H1216.1C1213.9 88.1 1210.3 82.8 1205.3 78.6C1200.3 74.4 1194.3 72.3 1187.5 72.3C1183.3 72.3 1179.4 73.1 1175.7 74.8C1172 76.5 1168.8 78.8 1166.1 81.6C1163.4 84.5 1161.3 87.8 1159.7 91.8C1158.2 95.7 1157.4 100 1157.4 104.6C1157.4 108.1 1158.1 111.8 1159.5 115.6C1160.9 119.4 1162.9 122.8 1165.5 125.9C1168.1 129 1171.3 131.6 1175 133.7C1178.7 135.8 1182.9 136.8 1187.5 136.8C1191.7 136.8 1195.5 136.2 1199 135.1C1202.5 134 1205.8 131.3 1208.9 127.3L1209.1 127.1L1209.6 127.3L1236.5 139.2L1236 139.7C1230.4 147.5 1223.3 153.6 1214.8 158C1206.2 162.4 1197.1 164.6 1187.5 164.6C1179.1 164.6 1171.3 163 1163.9 160C1156.5 156.9 1150.2 152.6 1144.7 147.2C1139.3 141.8 1135 135.4 1131.8 128.2C1128.6 120.9 1127 113.2 1127 105C1127 96.6 1128.6 88.8 1131.8 81.5C1135 74.2 1139.3 67.9 1144.7 62.5C1150.1 57.1 1156.5 52.8 1163.9 49.6C1171.4 46.2 1179.3 44.6 1187.6 44.6Z" fill="white"/>
<path d="M228.6 98.5L229.5 57.2L151.2 153.6V195.4" fill="#0689FF"/>
<path d="M151.2 195.4V153.6L84.0001 86.6V128" fill="#0B6DB5"/>
<path d="M82.9001 1C37.3001 0.700001 0.200081 37.9 8.11464e-05 83.9C-0.199919 129.9 36.5001 167.4 82.0001 167.7C90.4001 167.7 98.4001 166.5 106 164.2L79.3001 137.2C53.3001 135.2 32.9001 112.2 33.0001 84.3C33.2001 55.1 55.6001 31.6 83.2001 31.7C110.8 31.8 133 55.6 132.8 84.8C132.7 95.2 129.8 104.9 124.9 113.1L147.3 135.7C158.2 121.7 164.7 104 164.8 84.8C165.1 38.7 128.4 1.2 82.9001 1Z" fill="white"/>
<path d="M766.4 31.8C768.6 28.7 771.7 27.2 775.7 27.2H801V0H775.7C769.7 0 764 1.1 758.7 3.4C753.4 5.6 748.8 8.7 744.9 12.7C741 16.7 737.9 21.3 735.6 26.5C733.4 31.8 732.2 37.3 732.2 43.2V58.7H715.5V84.5H732.2V162.6H763.1V84.4H781.2H801V58.6H763.2V44.6C763.2 39.2 764.2 34.9 766.4 31.8Z" fill="white"/>
</svg>
